<svg width="42" height="8" viewBox="0 0 42 8" fill="none" xmlns="http://www.w3.org/2000/svg">
<path d="M7.5247 1.91199L4.94861 2.23912C4.76476 2.26246 4.62695 2.41887 4.62695 2.6042V5.2441C4.62695 5.42833 4.76318 5.58417 4.94576 5.60881L7.52185 5.95638C7.74265 5.98617 7.93907 5.81447 7.93907 5.59167V2.27708C7.93907 2.05543 7.74458 1.88407 7.5247 1.91199Z" fill="#161616"/>
<path d="M5.90535 0.0923955L0.306292 1.04493C0.129402 1.07503 0 1.2283 0 1.40773V6.61815C0 6.79927 0.131785 6.95346 0.310694 6.98167L5.90975 7.86451C6.1331 7.89972 6.33509 7.72709 6.33509 7.50099V6.3675C6.33509 6.31483 6.29612 6.27029 6.24392 6.26328L4.49866 6.02916C4.31596 6.00465 4.17958 5.84875 4.17958 5.66442V3.97543V2.27501C4.17958 2.09566 4.30887 1.94243 4.48566 1.91224L6.24763 1.61142C6.29815 1.60279 6.33509 1.55901 6.33509 1.50777V0.455196C6.33509 0.227285 6.13003 0.0541714 5.90535 0.0923955Z" fill="#1252D3"/>
<path d="M1.55224 2.93463C1.36022 3.04398 1.20554 3.19599 1.09353 3.38267C0.98019 3.57069 0.922852 3.7787 0.922852 4.00006C0.922852 4.22141 0.98019 4.42943 1.0922 4.61744C1.20554 4.80546 1.35889 4.95614 1.5509 5.06548C1.74292 5.17482 1.95627 5.23083 2.18696 5.23083H3.1177V3.7307H2.03761V4.25208H2.54699V4.67611H2.20563C2.08428 4.67611 1.97094 4.64544 1.8696 4.58411C1.76826 4.52277 1.68558 4.44009 1.62558 4.33875C1.56557 4.23608 1.53624 4.12273 1.53624 4.00139C1.53624 3.88005 1.56691 3.76537 1.62558 3.66403C1.68558 3.56135 1.76692 3.47868 1.8696 3.41867C1.97094 3.35734 2.08428 3.32667 2.20563 3.32667H3.11903V2.76929H2.18829C1.9576 2.76929 1.74425 2.82529 1.55224 2.93463Z" fill="white"/>
<path d="M6.6018 4.33105H6.3525L6.28215 4.1047H5.87533L5.80039 4.33105H5.55874L5.9518 3.22988H6.2118L6.6018 4.33105ZM6.08027 3.48223L5.93804 3.91506H6.21792L6.08027 3.48223ZM6.72213 3.22988H6.95154V4.33105H6.72213V3.22988Z" fill="white"/>
<path d="M11.7689 1.9376C11.3702 2.16467 11.049 2.48034 10.8164 2.86801C10.581 3.25845 10.4619 3.69043 10.4619 4.1501C10.4619 4.60976 10.581 5.04174 10.8136 5.43218C11.049 5.82262 11.3674 6.13552 11.7661 6.36259C12.1649 6.58965 12.6079 6.70595 13.087 6.70595H15.0198V3.59074H12.7769V4.67345H13.8346V5.55402H13.1258C12.8738 5.55402 12.6384 5.49033 12.428 5.36295C12.2175 5.23557 12.0458 5.06389 11.9212 4.85344C11.7966 4.64022 11.7357 4.40485 11.7357 4.15286C11.7357 3.90088 11.7994 3.66274 11.9212 3.45229C12.0458 3.23907 12.2147 3.06739 12.428 2.94278C12.6384 2.8154 12.8738 2.75171 13.1258 2.75171H15.0226V1.59424H13.0898C12.6107 1.59424 12.1677 1.71054 11.7689 1.9376Z" fill="#161616"/>
<path d="M17.8718 1.54443C16.6894 1.54443 15.7285 2.50807 15.7285 3.69324V6.70599H16.8915V5.19408H18.852V6.70599H20.015V3.69324C20.015 2.50807 19.0542 1.54443 17.8718 1.54443ZM18.852 4.11414H16.8915V3.69047C16.8915 3.14773 17.3318 2.70745 17.8718 2.70745C18.4118 2.70745 18.852 3.14773 18.852 3.69047V4.11414Z" fill="#161616"/>
<path d="M26.4218 1.53882C25.533 1.53882 24.8103 2.26428 24.8103 3.15589V5.21045C24.8103 5.45135 24.6165 5.64518 24.3756 5.64518C24.1347 5.64518 23.9408 5.45135 23.9408 5.21045V3.15866C23.9408 2.26705 23.2181 1.54159 22.3293 1.54159C21.4405 1.54159 20.7178 2.26705 20.7178 3.15866V6.70846H21.8973V3.15866C21.8973 2.91776 22.0912 2.72393 22.3321 2.72393C22.573 2.72393 22.7668 2.91776 22.7668 3.15866V5.21045C22.7668 6.10205 23.4895 6.82752 24.3783 6.82752C25.2672 6.82752 25.9899 6.10205 25.9899 5.21045V3.15589C25.9899 2.91499 26.1837 2.72116 26.4246 2.72116C26.6655 2.72116 26.8593 2.91499 26.8593 3.15589V6.70846H28.0389V3.15589C28.0389 2.26428 27.3162 1.53882 26.4274 1.53882H26.4218Z" fill="#161616"/>
<path d="M39.0681 1.54712C37.8857 1.54712 36.9248 2.51076 36.9248 3.69592V6.70868H38.0878V5.19676H40.0483V6.70868H41.2113V3.69592C41.2113 2.51076 40.2505 1.54712 39.0681 1.54712ZM40.0483 4.11959H38.0878V3.69592C38.0878 3.15318 38.5281 2.7129 39.0681 2.7129C39.608 2.7129 40.0483 3.15318 40.0483 3.69592V4.11959Z" fill="#161616"/>
<path d="M34.6074 1.53882C33.7185 1.53882 32.9958 2.26428 32.9958 3.15589V5.21045C32.9958 5.45135 32.802 5.64518 32.5611 5.64518C32.3202 5.64518 32.1264 5.45135 32.1264 5.21045V3.15589C32.1264 2.26428 31.4037 1.53882 30.5149 1.53882C29.626 1.53882 28.9033 2.26428 28.9033 3.15589V6.70846H30.0829V3.15589C30.0829 2.91499 30.2767 2.72116 30.5176 2.72116C30.7585 2.72116 30.9523 2.91499 30.9523 3.15589V5.21045C30.9523 6.10205 31.675 6.82752 32.5639 6.82752C33.4527 6.82752 34.1754 6.10205 34.1754 5.21045V3.15589C34.1754 2.91499 34.3692 2.72116 34.6101 2.72116C34.851 2.72116 35.0449 2.91499 35.0449 3.15589V6.70846H36.2244V3.15589C36.2244 2.26428 35.5017 1.53882 34.6129 1.53882H34.6074Z" fill="#161616"/>
</svg>
