<svg width="24" height="24" viewBox="0 0 24 24" fill="none" xmlns="http://www.w3.org/2000/svg">
<path d="M5.4873 14.6985C5.70362 14.6987 5.87888 14.8737 5.87891 15.0901V18.2258H17.6377V15.0901C17.6377 14.8737 17.8129 14.6985 18.0293 14.6985H19.5977C19.8139 14.6987 19.9892 14.8738 19.9893 15.0901V20.1858C19.9891 20.402 19.8138 20.5771 19.5977 20.5774H3.91895C3.7027 20.5773 3.52751 20.402 3.52734 20.1858V15.0901C3.52737 14.8737 3.70261 14.6986 3.91895 14.6985H5.4873ZM13.7178 2.9397C13.9341 2.9397 14.1102 3.11499 14.1104 3.3313V11.1702H16.4619L11.7578 17.05L7.05469 11.1702H9.40625V3.3313C9.40644 3.11499 9.58248 2.9397 9.79883 2.9397H13.7178Z" fill="#EFF2F5"/>
</svg>
