<svg width="14" height="14" viewBox="0 0 14 14" fill="none" xmlns="http://www.w3.org/2000/svg">
<path d="M5.28914 6.17443H2.82975C2.34159 6.17443 1.94434 5.77717 1.94434 5.28901V2.82932C1.94434 2.34116 2.34159 1.9439 2.82975 1.9439H5.28914C5.7773 1.9439 6.17456 2.34116 6.17456 2.82932V5.28901C6.17456 5.77717 5.7776 6.17443 5.28914 6.17443ZM10.5034 6.17443H8.04368C7.55552 6.17443 7.15826 5.77717 7.15826 5.28901V2.82932C7.15826 2.34116 7.55552 1.9439 8.04368 1.9439H10.5034C10.9915 1.9439 11.3888 2.34116 11.3888 2.82932V5.28901C11.3888 5.77717 10.9915 6.17443 10.5034 6.17443ZM5.28914 11.3701H2.82975C2.34159 11.3701 1.94434 10.9728 1.94434 10.4846V8.02495C1.94434 7.53679 2.34159 7.13953 2.82975 7.13953H5.28914C5.7773 7.13953 6.17456 7.53679 6.17456 8.02495V10.4846C6.17456 10.9728 5.7776 11.3701 5.28914 11.3701ZM10.5034 11.3701H8.04368C7.55552 11.3701 7.15826 10.9728 7.15826 10.4846V8.02495C7.15826 7.53679 7.55552 7.13953 8.04368 7.13953H10.5034C10.9915 7.13953 11.3888 7.53679 11.3888 8.02495V10.4846C11.3888 10.9728 10.9915 11.3701 10.5034 11.3701Z" fill="#1252D3"/>
</svg>
