<svg width="14" height="14" viewBox="0 0 14 14" fill="none" xmlns="http://www.w3.org/2000/svg">
<path fill-rule="evenodd" clip-rule="evenodd" d="M12.2217 12.222H5.74023L8.98145 6.66634L12.2217 12.222ZM10.833 8.00423L8.98145 4.82943L5.47852 10.8333H2.5V7.31966C2.92948 7.49416 3.39784 7.5931 3.88867 7.5931C5.93123 7.59304 7.59271 5.93156 7.59277 3.889C7.59277 3.39809 7.49375 2.92986 7.31934 2.50033H10.833V8.00423ZM3.88867 1.11068C5.42085 1.11074 6.66602 2.35724 6.66602 3.889C6.66596 5.42057 5.42081 6.66628 3.88867 6.66634C2.35705 6.66634 1.11041 5.42061 1.11035 3.889C1.11035 2.35721 2.35701 1.11068 3.88867 1.11068Z" fill="#161616"/>
</svg>
