<svg width="14" height="14" viewBox="0 0 14 14" fill="none" xmlns="http://www.w3.org/2000/svg">
<path d="M11.2963 2.03703H7.12971V1.57407C7.12971 1.31841 6.92242 1.11111 6.66675 1.11111C6.41109 1.11111 6.2038 1.31841 6.2038 1.57407V2.03703H2.03717C1.78149 2.03703 1.57422 2.24432 1.57422 2.49998V9.90727C1.57422 10.1629 1.78149 10.3702 2.03717 10.3702H4.06586L3.47494 11.5521C3.36059 11.7808 3.45328 12.0589 3.68197 12.1732C3.9107 12.2876 4.18876 12.1949 4.30306 11.9662L5.10104 10.3702H8.23247L9.03043 11.9662C9.11155 12.1284 9.27502 12.2222 9.44486 12.2222C9.51443 12.2222 9.58507 12.2064 9.65152 12.1732C9.88023 12.0589 9.9729 11.7808 9.85855 11.5521L9.26762 10.3702H11.2963C11.552 10.3702 11.7593 10.1629 11.7593 9.90727V2.49998C11.7593 2.24432 11.552 2.03703 11.2963 2.03703ZM9.83123 5.00335L7.64881 7.18575C7.56198 7.27257 7.44421 7.32134 7.32146 7.32134C7.19866 7.32134 7.0809 7.27253 6.9941 7.18568L6.01204 6.20358L4.15701 8.05862C4.0666 8.14905 3.94813 8.19427 3.82967 8.19427C3.71118 8.19427 3.59269 8.14905 3.50232 8.05862C3.32146 7.87785 3.32146 7.58473 3.5023 7.40393L5.68472 5.22151C5.77155 5.13468 5.88928 5.08592 6.01207 5.08592C6.13485 5.08592 6.25263 5.13468 6.33943 5.22151L7.32149 6.20363L9.17652 4.34859C9.35731 4.16782 9.65046 4.16782 9.83123 4.34859C10.012 4.52941 10.012 4.82253 9.83123 5.00335Z" fill="#161616"/>
</svg>
