<svg width="15" height="15" viewBox="0 0 15 15" fill="none" xmlns="http://www.w3.org/2000/svg">
<g clip-path="url(#clip0_275_2779)">
<path d="M10 7.5C10 7.16848 10.1317 6.85054 10.3661 6.61612C10.6005 6.3817 10.9185 6.25 11.25 6.25C11.5815 6.25 11.8995 6.3817 12.1339 6.61612C12.3683 6.85054 12.5 7.16848 12.5 7.5C12.5 7.83152 12.3683 8.14946 12.1339 8.38388C11.8995 8.6183 11.5815 8.75 11.25 8.75C10.9185 8.75 10.6005 8.6183 10.3661 8.38388C10.1317 8.14946 10 7.83152 10 7.5ZM6.25 7.5C6.25 7.16848 6.3817 6.85054 6.61612 6.61612C6.85054 6.3817 7.16848 6.25 7.5 6.25C7.83152 6.25 8.14946 6.3817 8.38388 6.61612C8.6183 6.85054 8.75 7.16848 8.75 7.5C8.75 7.83152 8.6183 8.14946 8.38388 8.38388C8.14946 8.6183 7.83152 8.75 7.5 8.75C7.16848 8.75 6.85054 8.6183 6.61612 8.38388C6.3817 8.14946 6.25 7.83152 6.25 7.5ZM2.5 7.5C2.5 7.16848 2.6317 6.85054 2.86612 6.61612C3.10054 6.3817 3.41848 6.25 3.75 6.25C4.08152 6.25 4.39946 6.3817 4.63388 6.61612C4.8683 6.85054 5 7.16848 5 7.5C5 7.83152 4.8683 8.14946 4.63388 8.38388C4.39946 8.6183 4.08152 8.75 3.75 8.75C3.41848 8.75 3.10054 8.6183 2.86612 8.38388C2.6317 8.14946 2.5 7.83152 2.5 7.5Z" fill="#161616"/>
</g>
<defs>
<clipPath id="clip0_275_2779">
<rect width="15" height="15" fill="white" transform="translate(15) rotate(90)"/>
</clipPath>
</defs>
</svg>
