<svg width="24" height="24" viewBox="0 0 24 24" fill="none" xmlns="http://www.w3.org/2000/svg">
<path d="M20.4416 6.36272L17.1547 3.07581C17.0708 2.99173 16.9568 2.94444 16.838 2.94434H3.39157C3.2727 2.94434 3.15869 2.99156 3.07464 3.07561C2.99058 3.15967 2.94336 3.27368 2.94336 3.39255V20.1259C2.94336 20.2448 2.99058 20.3588 3.07464 20.4428C3.15869 20.5269 3.2727 20.5741 3.39157 20.5741C7.2492 20.592 16.339 20.5741 20.1249 20.5741C20.2438 20.5741 20.3578 20.5269 20.4418 20.4428C20.5259 20.3588 20.5731 20.2448 20.5731 20.1259V6.67945C20.573 6.56062 20.5257 6.44669 20.4416 6.36272ZM13.5511 3.84076H15.0302V7.77011H13.5511V3.84076ZM8.49225 3.84076H12.6547V7.77011H8.48926L8.49225 3.84076ZM16.596 19.6777H6.9235V15.7483H16.593L16.596 19.6777Z" fill="#1F1F1F"/>
</svg>
