<svg width="15" height="15" viewBox="0 0 15 15" fill="none" xmlns="http://www.w3.org/2000/svg">
<path d="M7.31399 14.7049C7.41676 14.8077 7.58338 14.8077 7.68615 14.7049L14.5597 7.83136C14.6176 7.77354 14.6634 7.70489 14.6948 7.62933C14.7261 7.55377 14.7422 7.47278 14.7422 7.39099C14.7422 7.3092 14.7261 7.22821 14.6948 7.15265C14.6634 7.07709 14.6176 7.00844 14.5597 6.95062L7.68617 0.0770888C7.58339 -0.0256873 7.41675 -0.02568 7.31399 0.0771053L6.80538 0.585805C6.70262 0.688578 6.70263 0.855187 6.80539 0.95795L12.6155 6.7681L0.262911 6.7681C0.117573 6.7681 -0.000247002 6.88592 -0.000247002 7.03125V7.75073C-0.000247002 7.89607 0.117573 8.01389 0.262911 8.01389L12.6155 8.01389L6.80541 13.8242C6.70264 13.9269 6.70264 14.0936 6.80541 14.1963L7.31399 14.7049Z" fill="#1F1F1F"/>
</svg>
