<svg width="10" height="10" viewBox="0 0 10 10" fill="none" xmlns="http://www.w3.org/2000/svg">
<path d="M0.103859 9.89614C0.137029 9.92935 0.176419 9.95569 0.219778 9.97367C0.263136 9.99164 0.309612 10.0009 0.356548 10.0009C0.403484 10.0009 0.44996 9.99164 0.493318 9.97367C0.536676 9.95569 0.576066 9.92935 0.609237 9.89614L4.9987 5.50668L9.38996 9.89614C9.45697 9.96316 9.54787 10.0008 9.64264 10.0008C9.73742 10.0008 9.82832 9.96316 9.89533 9.89614C9.96235 9.82913 10 9.73823 10 9.64345C10 9.54868 9.96235 9.45778 9.89533 9.39077L5.50408 5.0013L9.89355 0.610045C9.96056 0.543028 9.99821 0.452133 9.99821 0.357356C9.99821 0.262579 9.96056 0.171684 9.89355 0.104667C9.82653 0.0376499 9.73563 0 9.64086 0C9.54608 0 9.45519 0.0376499 9.38817 0.104667L4.9987 4.49592L0.607451 0.106453C0.539126 0.0479412 0.451238 0.0173663 0.36135 0.0208383C0.271462 0.0243103 0.186195 0.0615733 0.122587 0.125181C0.0589791 0.188789 0.0217161 0.274057 0.0182441 0.363945C0.0147721 0.453833 0.045347 0.54172 0.103859 0.610045L4.49333 5.0013L0.103859 9.39255C0.0373379 9.45947 0 9.54999 0 9.64435C0 9.7387 0.0373379 9.82923 0.103859 9.89614Z" fill="#161616"/>
</svg>
