<svg width="20" height="20" viewBox="0 0 20 20" fill="none" xmlns="http://www.w3.org/2000/svg">
<path d="M15.5197 4.12304L15.877 4.48027C16.1545 4.75779 16.1545 5.20654 15.877 5.48111L15.0178 6.34318L13.6568 4.98216L14.5159 4.12304C14.7935 3.84552 15.2422 3.84552 15.5168 4.12304H15.5197ZM8.69397 9.94797L12.656 5.983L14.017 7.34402L10.052 11.306C9.96642 11.3917 9.86013 11.4536 9.74499 11.4861L8.01789 11.9792L8.51092 10.2521C8.5434 10.1369 8.6054 10.0306 8.69101 9.94501L8.69397 9.94797ZM13.5151 3.1222L7.69018 8.94418C7.43333 9.20103 7.24733 9.51693 7.1499 9.86235L6.30554 12.8147C6.23468 13.0627 6.30259 13.3284 6.48563 13.5114C6.66868 13.6945 6.93438 13.7624 7.18238 13.6915L10.1347 12.8471C10.4831 12.7468 10.799 12.5608 11.0529 12.3069L16.8778 6.48489C17.7074 5.65529 17.7074 4.30903 16.8778 3.47943L16.5206 3.1222C15.691 2.2926 14.3447 2.2926 13.5151 3.1222ZM5.09804 4.27361C3.66321 4.27361 2.5 5.43682 2.5 6.87165V14.902C2.5 16.3368 3.66321 17.5 5.09804 17.5H13.1284C14.5632 17.5 15.7264 16.3368 15.7264 14.902V11.5954C15.7264 11.2027 15.4105 10.8868 15.0178 10.8868C14.6252 10.8868 14.3093 11.2027 14.3093 11.5954V14.902C14.3093 15.5544 13.7808 16.0829 13.1284 16.0829H5.09804C4.44558 16.0829 3.91711 15.5544 3.91711 14.902V6.87165C3.91711 6.21918 4.44558 5.69072 5.09804 5.69072H8.40464C8.7973 5.69072 9.1132 5.37482 9.1132 4.98216C9.1132 4.5895 8.7973 4.27361 8.40464 4.27361H5.09804Z" fill="#A34406"/>
</svg>
