<svg width="70" height="12" viewBox="0 0 70 12" fill="none" xmlns="http://www.w3.org/2000/svg">
<path d="M2.94976 0.900669C2.04983 1.41313 1.32489 2.12557 0.799935 3.0005C0.268728 3.88168 0 4.8566 0 5.89401C0 6.93143 0.268728 7.90635 0.793685 8.78753C1.32489 9.6687 2.04358 10.3749 2.94351 10.8874C3.84344 11.3998 4.84336 11.6623 5.92452 11.6623H10.2867V4.63162H5.22457V7.07517H7.61188V9.0625H6.01201C5.44331 9.0625 4.9121 8.91877 4.43714 8.63129C3.96218 8.34381 3.57471 7.95634 3.29348 7.48138C3.01225 7.00017 2.87477 6.46897 2.87477 5.90026C2.87477 5.33156 3.0185 4.7941 3.29348 4.31914C3.57471 3.83793 3.95593 3.45046 4.43714 3.16923C4.9121 2.88176 5.44331 2.73802 6.01201 2.73802H10.2929V0.125732H5.93077C4.8496 0.125732 3.84969 0.388211 2.94976 0.900669Z" fill="#161616"/>
<path d="M16.7228 0.0131836C14.0543 0.0131836 11.8857 2.18801 11.8857 4.86279V11.6622H14.5105V8.25001H18.9352V11.6622H21.56V4.86279C21.56 2.18801 19.3914 0.0131836 16.7228 0.0131836ZM18.9352 5.81271H14.5105V4.85654C14.5105 3.63164 15.5042 2.63797 16.7228 2.63797C17.9415 2.63797 18.9352 3.63164 18.9352 4.85654V5.81271Z" fill="#161616"/>
<path d="M36.0208 0.000732422C34.0149 0.000732422 32.3838 1.63803 32.3838 3.65027V8.28719C32.3838 8.83088 31.9464 9.26832 31.4027 9.26832C30.859 9.26832 30.4215 8.83088 30.4215 8.28719V3.65652C30.4215 1.64428 28.7905 0.00698164 26.7845 0.00698164C24.7785 0.00698164 23.1475 1.64428 23.1475 3.65652V11.668H25.8096V3.65652C25.8096 3.11284 26.2471 2.6754 26.7908 2.6754C27.3344 2.6754 27.7719 3.11284 27.7719 3.65652V8.28719C27.7719 10.2994 29.4029 11.9367 31.4089 11.9367C33.4149 11.9367 35.046 10.2994 35.046 8.28719V3.65027C35.046 3.10659 35.4834 2.66915 36.0271 2.66915C36.5708 2.66915 37.0082 3.10659 37.0082 3.65027V11.668H39.6704V3.65027C39.6704 1.63803 38.0393 0.000732422 36.0333 0.000732422H36.0208Z" fill="#161616"/>
<path d="M64.5607 0.0195312C61.8922 0.0195312 59.7236 2.19435 59.7236 4.86914V11.6686H62.3484V8.25636H66.7731V11.6686H69.3978V4.86914C69.3978 2.19435 67.2293 0.0195312 64.5607 0.0195312ZM66.7731 5.82531H62.3484V4.86914C62.3484 3.64424 63.3421 2.65057 64.5607 2.65057C65.7794 2.65057 66.7731 3.64424 66.7731 4.86914V5.82531Z" fill="#161616"/>
<path d="M54.4935 0.000732422C52.4875 0.000732422 50.8565 1.63803 50.8565 3.65027V8.28719C50.8565 8.83088 50.419 9.26832 49.8753 9.26832C49.3316 9.26832 48.8942 8.83088 48.8942 8.28719V3.65027C48.8942 1.63803 47.2632 0.000732422 45.2572 0.000732422C43.2512 0.000732422 41.6201 1.63803 41.6201 3.65027V11.668H44.2823V3.65027C44.2823 3.10659 44.7197 2.66915 45.2634 2.66915C45.8071 2.66915 46.2445 3.10659 46.2445 3.65027V8.28719C46.2445 10.2994 47.8756 11.9367 49.8816 11.9367C51.8876 11.9367 53.5186 10.2994 53.5186 8.28719V3.65027C53.5186 3.10659 53.9561 2.66915 54.4997 2.66915C55.0434 2.66915 55.4809 3.10659 55.4809 3.65027V11.668H58.143V3.65027C58.143 1.63803 56.512 0.000732422 54.506 0.000732422H54.4935Z" fill="#161616"/>
</svg>
