<svg width="20" height="20" viewBox="0 0 20 20" fill="none" xmlns="http://www.w3.org/2000/svg">
<path d="M6.25 16.0938C5.99219 16.0938 5.78125 15.8828 5.78125 15.625V4.375C5.78125 4.11719 5.99219 3.90625 6.25 3.90625H10.9375V6.25C10.9375 6.76855 11.3564 7.1875 11.875 7.1875H14.2188V15.625C14.2188 15.8828 14.0078 16.0938 13.75 16.0938H6.25ZM6.25 2.5C5.21582 2.5 4.375 3.34082 4.375 4.375V15.625C4.375 16.6592 5.21582 17.5 6.25 17.5H13.75C14.7842 17.5 15.625 16.6592 15.625 15.625V7.02637C15.625 6.52832 15.4287 6.05078 15.0771 5.69922L12.4229 3.04785C12.0713 2.69629 11.5967 2.5 11.0986 2.5H6.25ZM8.35938 8.59375C7.96973 8.59375 7.65625 8.90723 7.65625 9.29688V12.3438V13.9844C7.65625 14.374 7.96973 14.6875 8.35938 14.6875C8.74902 14.6875 9.0625 14.374 9.0625 13.9844V13.0469H10.3516C11.582 13.0469 12.5781 12.0508 12.5781 10.8203C12.5781 9.58984 11.582 8.59375 10.3516 8.59375H8.35938ZM10.3516 11.6406H9.0625V10H10.3516C10.8057 10 11.1719 10.3662 11.1719 10.8203C11.1719 11.2744 10.8057 11.6406 10.3516 11.6406Z" fill="#1E2CAF"/>
</svg>
