<svg width="24" height="24" viewBox="0 0 24 24" fill="none" xmlns="http://www.w3.org/2000/svg">
<path d="M17.1317 17.2119C17.277 17.2119 17.3948 17.0941 17.3948 16.9488L17.3948 7.2281C17.3949 7.14631 17.3788 7.06532 17.3475 6.98975C17.3162 6.91418 17.2703 6.84551 17.2125 6.78768C17.1546 6.72984 17.086 6.68397 17.0104 6.65268C16.9348 6.62139 16.8538 6.6053 16.7721 6.60533L7.05141 6.60533C6.90606 6.60533 6.78824 6.72316 6.78825 6.86851L6.78832 7.58785C6.78833 7.73318 6.90614 7.85099 7.05147 7.85099L15.2683 7.85099L6.53363 16.5856C6.43086 16.6884 6.43086 16.855 6.53363 16.9578L7.04238 17.4665C7.14515 17.5693 7.31177 17.5693 7.41454 17.4665L16.1492 8.73189L16.1493 16.9488C16.1493 17.0941 16.2671 17.2119 16.4124 17.2119H17.1317Z" fill="white"/>
</svg>
