<svg width="24" height="24" viewBox="0 0 24 24" fill="none" xmlns="http://www.w3.org/2000/svg">
<path d="M5.09961 14C5.32052 14 5.5 14.1795 5.5 14.4004V17.5C5.5 18.0523 5.94772 18.5 6.5 18.5H9.59961C9.82052 18.5 10 18.6795 10 18.9004V19.5996C10 19.8205 9.82052 20 9.59961 20H6C4.89543 20 4 19.1046 4 18V14.4004C4 14.1795 4.17948 14 4.40039 14H5.09961ZM19.5996 14C19.8205 14 20 14.1795 20 14.4004V18C20 19.1046 19.1046 20 18 20H14.4004C14.1795 20 14 19.8205 14 19.5996V18.9004C14 18.6795 14.1795 18.5 14.4004 18.5H17.5C18.0523 18.5 18.5 18.0523 18.5 17.5V14.4004C18.5 14.1795 18.6795 14 18.9004 14H19.5996ZM9.59961 4C9.82052 4 10 4.17948 10 4.40039V5.09961C10 5.32052 9.82052 5.5 9.59961 5.5H6.5C5.94772 5.5 5.5 5.94772 5.5 6.5V9.59961C5.5 9.82052 5.32052 10 5.09961 10H4.40039C4.17948 10 4 9.82052 4 9.59961V6C4 4.89543 4.89543 4 6 4H9.59961ZM18 4C19.1046 4 20 4.89543 20 6V9.59961C20 9.82052 19.8205 10 19.5996 10H18.9004C18.6795 10 18.5 9.82052 18.5 9.59961V6.5C18.5 5.94772 18.0523 5.5 17.5 5.5H14.4004C14.1795 5.5 14 5.32052 14 5.09961V4.40039C14 4.17948 14.1795 4 14.4004 4H18Z" fill="#161616"/>
</svg>
