<svg width="40" height="40" viewBox="0 0 40 40" fill="none" xmlns="http://www.w3.org/2000/svg">
<rect width="40" height="40" rx="20" fill="#1F1F1F"/>
<path d="M25.1317 25.2119C25.277 25.2119 25.3948 25.0941 25.3948 24.9488L25.3948 15.2281C25.3949 15.1463 25.3788 15.0653 25.3475 14.9897C25.3162 14.9142 25.2703 14.8455 25.2125 14.7877C25.1546 14.7298 25.086 14.684 25.0104 14.6527C24.9348 14.6214 24.8538 14.6053 24.7721 14.6053L15.0514 14.6053C14.9061 14.6053 14.7882 14.7232 14.7883 14.8685L14.7883 15.5879C14.7883 15.7332 14.9061 15.851 15.0515 15.851L23.2683 15.851L14.5336 24.5856C14.4309 24.6884 14.4309 24.855 14.5336 24.9578L15.0424 25.4665C15.1451 25.5693 15.3118 25.5693 15.4145 25.4665L24.1492 16.7319L24.1493 24.9488C24.1493 25.0941 24.2671 25.2119 24.4124 25.2119H25.1317Z" fill="white"/>
</svg>
