<svg width="24" height="24" viewBox="0 0 24 24" fill="none" xmlns="http://www.w3.org/2000/svg">
<g clip-path="url(#clip0_202_8082)">
<path d="M21 3.7875V3H20.2125L16.8375 6.375H8.625V3.4C8.625 3.17909 8.44591 3 8.225 3H6.775C6.55409 3 6.375 3.17909 6.375 3.4V6.375H3.4C3.17909 6.375 3 6.55409 3 6.775V8.225C3 8.44591 3.17909 8.625 3.4 8.625H6.375V17.225C6.375 17.4459 6.55409 17.625 6.775 17.625H15.375V20.6C15.375 20.8209 15.5541 21 15.775 21H17.225C17.4459 21 17.625 20.8209 17.625 20.6V17.625H20.6C20.8209 17.625 21 17.4459 21 17.225V15.775C21 15.5541 20.8209 15.375 20.6 15.375H17.625V7.1625L21 3.7875ZM8.625 8.625H14.5875L8.625 14.5875V8.625ZM15.375 15.375H9.4125L15.375 9.4125V15.375Z" fill="#161616"/>
</g>
<defs>
<clipPath id="clip0_202_8082">
<rect width="18" height="18" fill="white" transform="translate(3 3)"/>
</clipPath>
</defs>
</svg>
