<svg width="24" height="24" viewBox="0 0 24 24" fill="none" xmlns="http://www.w3.org/2000/svg">
<path d="M5.06445 14.6191C5.27145 14.6194 5.43932 14.7871 5.43945 14.9941C5.43531 15.1996 5.26982 15.3658 5.06445 15.3701H3.75781C3.89512 18.0968 6.14188 20.24 8.87207 20.249C9.07342 20.2445 9.2423 20.3996 9.25488 20.6006C9.25628 20.6168 9.25659 20.6333 9.25586 20.6494C9.24643 20.8521 9.07475 21.0083 8.87207 20.999C5.63559 20.9862 3.01639 18.3634 3.00781 15.127C3.0137 15.1005 3.02158 15.0741 3.03125 15.0488V14.9863C3.03137 14.7835 3.19558 14.6192 3.39844 14.6191H5.06445ZM19.3105 11.4053C19.8287 11.4096 20.2455 11.8334 20.2412 12.3516V19.3105C20.2412 19.8287 19.8209 20.249 19.3027 20.249H12.3438C11.8256 20.249 11.4052 19.8287 11.4053 19.3105V13.3525H11.6475C12.5815 13.3525 13.3404 12.5971 13.3447 11.6631V11.4053H19.3105ZM15.8154 12.8438C15.655 12.8457 15.514 12.9502 15.4639 13.1025L13.5635 18.2549C13.5517 18.2775 13.542 18.3016 13.5352 18.3262C13.4807 18.5215 13.5947 18.7246 13.79 18.7793C13.8339 18.787 13.879 18.787 13.9229 18.7793C14.0785 18.7775 14.2182 18.6809 14.2754 18.5361L14.7363 17.2852H16.9258L17.3789 18.5361C17.4553 18.7277 17.6701 18.8252 17.8643 18.7559C17.8763 18.7518 17.8878 18.7465 17.8994 18.7412C18.0843 18.6575 18.1668 18.4398 18.083 18.2549L16.1826 13.1025C16.1267 12.9478 15.98 12.8439 15.8154 12.8438ZM16.6357 16.5352H15.0176L15.8232 14.3301L16.6357 16.5352ZM11.6562 3.75098C12.1785 3.75549 12.5979 4.18188 12.5938 4.7041V11.6553C12.5895 12.1716 12.1725 12.5893 11.6562 12.5938H4.7041C4.18181 12.5978 3.75526 12.1776 3.75098 11.6553V4.7041C3.75119 4.17744 4.17837 3.75098 4.70508 3.75098H11.6562ZM8.16895 4.92383C7.9634 4.92797 7.79711 5.09328 7.79297 5.29883V6.71387H5.69727C5.48168 6.71409 5.30688 6.88892 5.30664 7.10449C5.30664 7.32027 5.48154 7.49587 5.69727 7.49609H6.3623C6.45217 8.48732 6.88007 9.41755 7.57422 10.1309C7.00919 10.484 6.35579 10.6715 5.68945 10.6709C5.4841 10.6753 5.31859 10.8405 5.31445 11.0459C5.31453 11.253 5.48242 11.4207 5.68945 11.4209C6.57735 11.4274 7.44551 11.1544 8.16895 10.6396C8.89829 11.1539 9.77063 11.4269 10.6631 11.4209C10.8702 11.4207 11.038 11.253 11.0381 11.0459C11.0339 10.8404 10.8685 10.6752 10.6631 10.6709C9.99631 10.6749 9.34199 10.4871 8.77832 10.1309C9.46957 9.42897 9.89527 8.5086 9.98242 7.52734H10.6553C10.8709 7.52718 11.0456 7.35231 11.0459 7.13672C11.0459 6.9209 10.871 6.74528 10.6553 6.74512H8.54395V5.29883C8.54395 5.09171 8.376 4.92407 8.16895 4.92383ZM9.21582 7.49609C9.13676 8.31779 8.7648 9.084 8.16797 9.6543C7.58517 9.07567 7.22039 8.31297 7.13574 7.49609H9.21582ZM15.127 3C18.3652 3.00861 20.9869 5.63385 20.9912 8.87207C20.9882 8.89596 20.983 8.91948 20.9756 8.94238C20.9779 8.96572 20.9779 8.98935 20.9756 9.0127C20.9756 9.21992 20.8078 9.38762 20.6006 9.3877H18.9424C18.737 9.38334 18.5715 9.2181 18.5674 9.0127C18.5675 8.80563 18.7354 8.63792 18.9424 8.6377H20.2412C20.1198 5.90243 17.8649 3.7483 15.127 3.75098C14.9197 3.75092 14.752 3.58223 14.752 3.375C14.7562 3.16963 14.9216 3.0042 15.127 3Z" fill="#161616"/>
</svg>
