<svg width="124" height="22" viewBox="0 0 124 22" fill="none" xmlns="http://www.w3.org/2000/svg">
<path d="M3.4375 17H0.146484L5.16602 2.44922H9.13086L14.1406 17H10.8594L7.20703 5.76953H7.08984L3.4375 17ZM3.24219 11.2773H11.0254V13.6797H3.24219V11.2773ZM18.3008 2.44922V17H15.2344V2.44922H18.3008Z" fill="#282828" fill-opacity="0.5"/>
<path d="M33.1445 2.44922H36.2207V11.8926C36.2207 12.9538 35.9668 13.8848 35.459 14.6855C34.9577 15.4798 34.2546 16.0983 33.3496 16.541C32.4447 16.9837 31.39 17.2051 30.1855 17.2051C28.9811 17.2051 27.9264 16.9837 27.0215 16.541C26.1165 16.0983 25.4134 15.4798 24.9121 14.6855C24.4108 13.8848 24.1602 12.9538 24.1602 11.8926V2.44922H27.2266V11.6387C27.2266 12.1921 27.3503 12.6868 27.5977 13.123C27.8451 13.5527 28.1901 13.8913 28.6328 14.1387C29.0755 14.3796 29.5931 14.5 30.1855 14.5C30.7845 14.5 31.3053 14.3796 31.748 14.1387C32.1908 13.8913 32.5326 13.5527 32.7734 13.123C33.0208 12.6868 33.1445 12.1921 33.1445 11.6387V2.44922ZM38.0566 21.082V6.08203H41.0254V7.92773H41.1621C41.2988 7.62826 41.4941 7.32552 41.748 7.01953C42.002 6.71354 42.334 6.45964 42.7441 6.25781C43.1543 6.04948 43.6621 5.94531 44.2676 5.94531C45.0684 5.94531 45.8008 6.15365 46.4648 6.57031C47.1354 6.98047 47.6725 7.60221 48.0762 8.43555C48.4798 9.26888 48.6816 10.3105 48.6816 11.5605C48.6816 12.7715 48.4863 13.7969 48.0957 14.6367C47.7051 15.4701 47.1745 16.1016 46.5039 16.5312C45.8398 16.9609 45.0911 17.1758 44.2578 17.1758C43.6719 17.1758 43.1738 17.0781 42.7637 16.8828C42.3535 16.6875 42.0182 16.4434 41.7578 16.1504C41.5039 15.8509 41.3053 15.5514 41.1621 15.252H41.0742V21.082H38.0566ZM43.3008 14.7734C43.7956 14.7734 44.2122 14.6367 44.5508 14.3633C44.8893 14.0898 45.1465 13.7122 45.3223 13.2305C45.498 12.7422 45.5859 12.1823 45.5859 11.5508C45.5859 10.9193 45.498 10.3659 45.3223 9.89062C45.153 9.40885 44.8991 9.03125 44.5605 8.75781C44.222 8.48438 43.8021 8.34766 43.3008 8.34766C42.8125 8.34766 42.3958 8.48112 42.0508 8.74805C41.7122 9.00846 41.4518 9.37956 41.2695 9.86133C41.0938 10.3366 41.0059 10.8997 41.0059 11.5508C41.0059 12.1953 41.097 12.7585 41.2793 13.2402C41.4616 13.722 41.722 14.0996 42.0605 14.373C42.4056 14.64 42.819 14.7734 43.3008 14.7734ZM59.0723 9.19727L56.3086 9.36328C56.237 9.01823 56.0449 8.72201 55.7324 8.47461C55.4199 8.2207 55 8.09375 54.4727 8.09375C54.0039 8.09375 53.61 8.19141 53.291 8.38672C52.9785 8.58203 52.8223 8.84245 52.8223 9.16797C52.8223 9.42839 52.9232 9.65299 53.125 9.8418C53.3333 10.0241 53.6882 10.1673 54.1895 10.2715L56.1719 10.6621C57.2331 10.877 58.0241 11.2253 58.5449 11.707C59.0658 12.1888 59.3262 12.8236 59.3262 13.6113C59.3262 14.334 59.1178 14.9655 58.7012 15.5059C58.2845 16.0397 57.7116 16.4596 56.9824 16.7656C56.2533 17.0651 55.4167 17.2148 54.4727 17.2148C53.0273 17.2148 51.875 16.9121 51.0156 16.3066C50.1628 15.7012 49.6647 14.8809 49.5215 13.8457L52.4805 13.6895C52.5781 14.1322 52.7995 14.4674 53.1445 14.6953C53.4896 14.9232 53.9323 15.0371 54.4727 15.0371C55 15.0371 55.4264 14.9329 55.752 14.7246C56.084 14.5163 56.25 14.2526 56.25 13.9336C56.25 13.3932 55.7812 13.0286 54.8438 12.8398L52.959 12.4492C51.8978 12.2344 51.1068 11.8665 50.5859 11.3457C50.0651 10.8249 49.8047 10.1576 49.8047 9.34375C49.8047 8.64062 49.9967 8.03516 50.3809 7.52734C50.765 7.01953 51.3021 6.62891 51.9922 6.35547C52.6888 6.08203 53.5026 5.94531 54.4336 5.94531C55.8138 5.94531 56.8978 6.23828 57.6855 6.82422C58.4798 7.40365 58.9421 8.19466 59.0723 9.19727ZM65.5078 17.2148C64.3945 17.2148 63.4375 16.9772 62.6367 16.502C61.8359 16.0202 61.2207 15.3594 60.791 14.5195C60.3613 13.6732 60.1465 12.6966 60.1465 11.5898C60.1465 10.4701 60.3613 9.48698 60.791 8.64062C61.2272 7.79427 61.8457 7.13346 62.6465 6.6582C63.4473 6.18294 64.401 5.94531 65.5078 5.94531C66.4583 5.94531 67.2884 6.11784 67.998 6.46289C68.7142 6.80794 69.2806 7.29297 69.6973 7.91797C70.1139 8.54297 70.3418 9.27865 70.3809 10.125H67.5293C67.4772 9.76042 67.3665 9.44141 67.1973 9.16797C67.028 8.89453 66.8034 8.68294 66.5234 8.5332C66.2435 8.38346 65.918 8.30859 65.5469 8.30859C65.0781 8.30859 64.668 8.43555 64.3164 8.68945C63.9714 8.93685 63.7012 9.30469 63.5059 9.79297C63.3171 10.2747 63.2227 10.8607 63.2227 11.5508C63.2227 12.2409 63.3171 12.8333 63.5059 13.3281C63.7012 13.8229 63.9714 14.2005 64.3164 14.4609C64.668 14.7214 65.0781 14.8516 65.5469 14.8516C66.0677 14.8516 66.5072 14.6888 66.8652 14.3633C67.2233 14.0312 67.4447 13.5755 67.5293 12.9961H70.3809C70.3353 13.8294 70.1107 14.5651 69.707 15.2031C69.3034 15.8346 68.7467 16.3294 68.0371 16.6875C67.3275 17.0391 66.4844 17.2148 65.5078 17.2148ZM74.7949 17.2051C74.1048 17.2051 73.4831 17.0846 72.9297 16.8438C72.3828 16.5964 71.9531 16.2318 71.6406 15.75C71.3281 15.2682 71.1719 14.6693 71.1719 13.9531C71.1719 13.3411 71.2826 12.8333 71.5039 12.4297C71.7253 12.0195 72.028 11.6875 72.4121 11.4336C72.7962 11.1797 73.2324 10.9876 73.7207 10.8574C74.209 10.7272 74.7266 10.6361 75.2734 10.584C75.9049 10.5254 76.4128 10.4668 76.7969 10.4082C77.181 10.3496 77.4609 10.2617 77.6367 10.1445C77.819 10.0208 77.9102 9.84505 77.9102 9.61719V9.56836C77.9102 9.11914 77.7669 8.77083 77.4805 8.52344C77.2005 8.27604 76.8034 8.15234 76.2891 8.15234C75.7487 8.15234 75.3158 8.27279 74.9902 8.51367C74.6712 8.74805 74.4596 9.04753 74.3555 9.41211L71.5527 9.1875C71.696 8.52344 71.9759 7.95052 72.3926 7.46875C72.8092 6.98047 73.3464 6.60612 74.0039 6.3457C74.668 6.07878 75.4362 5.94531 76.3086 5.94531C76.9141 5.94531 77.4935 6.01693 78.0469 6.16016C78.6003 6.30339 79.0918 6.52474 79.5215 6.82422C79.9577 7.11719 80.3027 7.49805 80.5566 7.9668C80.8105 8.43555 80.9375 8.99219 80.9375 9.63672V17H78.0566V15.4766H77.9785C77.8027 15.8216 77.5684 16.1243 77.2754 16.3848C76.9824 16.6387 76.6309 16.8405 76.2207 16.9902C75.8105 17.1335 75.3353 17.2051 74.7949 17.2051ZM75.6641 15.1152C76.1068 15.1152 76.4974 15.0273 76.8359 14.8516C77.181 14.6693 77.4479 14.4284 77.6367 14.1289C77.832 13.8229 77.9297 13.4811 77.9297 13.1035V11.9414C77.8385 12 77.7083 12.0553 77.5391 12.1074C77.3763 12.1595 77.194 12.2051 76.9922 12.2441C76.7904 12.2832 76.5885 12.319 76.3867 12.3516C76.1849 12.3776 76.0026 12.4036 75.8398 12.4297C75.4818 12.4818 75.1693 12.5664 74.9023 12.6836C74.6354 12.7943 74.4271 12.9473 74.2773 13.1426C74.1341 13.3314 74.0625 13.569 74.0625 13.8555C74.0625 14.2656 74.2122 14.5781 74.5117 14.793C74.8112 15.0078 75.1953 15.1152 75.6641 15.1152ZM85.7227 2.44922V17H82.7051V2.44922H85.7227ZM92.4805 17.2148C91.3607 17.2148 90.3939 16.987 89.5801 16.5312C88.7663 16.0755 88.1413 15.4277 87.7051 14.5879C87.2754 13.7415 87.0605 12.7422 87.0605 11.5898C87.0605 10.4701 87.2754 9.48698 87.7051 8.64062C88.1413 7.79427 88.7533 7.13346 89.541 6.6582C90.3353 6.18294 91.2663 5.94531 92.334 5.94531C93.0566 5.94531 93.7305 6.0625 94.3555 6.29688C94.9805 6.52474 95.5273 6.86979 95.9961 7.33203C96.4648 7.78776 96.8294 8.36393 97.0898 9.06055C97.3503 9.75065 97.4805 10.5612 97.4805 11.4922V12.3125H88.2617V10.4473H96.0156L94.6094 10.9355C94.6094 10.3822 94.5247 9.90039 94.3555 9.49023C94.1862 9.08008 93.9323 8.76432 93.5938 8.54297C93.2617 8.3151 92.8483 8.20117 92.3535 8.20117C91.8587 8.20117 91.4388 8.3151 91.0938 8.54297C90.7552 8.77083 90.4948 9.08008 90.3125 9.4707C90.1302 9.86133 90.0391 10.3105 90.0391 10.8184V12.1367C90.0391 12.7292 90.1432 13.237 90.3516 13.6602C90.5599 14.0768 90.8496 14.3991 91.2207 14.627C91.5983 14.8483 92.0312 14.959 92.5195 14.959C92.8581 14.959 93.1641 14.9102 93.4375 14.8125C93.7109 14.7148 93.9453 14.5716 94.1406 14.3828C94.3424 14.194 94.4922 13.9661 94.5898 13.6992L97.3828 13.8848C97.2461 14.5553 96.9596 15.1413 96.5234 15.6426C96.0938 16.1374 95.5371 16.5247 94.8535 16.8047C94.1699 17.0781 93.3789 17.2148 92.4805 17.2148Z" fill="#282828"/>
<mask id="mask0_26_45" style="mask-type:alpha" maskUnits="userSpaceOnUse" x="104" y="0" width="20" height="20">
<rect x="104" width="20" height="20" fill="#D9D9D9"/>
</mask>
<g mask="url(#mask0_26_45)">
<path d="M112.333 19.1668V17.5002H108.167C107.708 17.5002 107.316 17.337 106.99 17.0106C106.663 16.6842 106.5 16.2918 106.5 15.8335V4.16683C106.5 3.7085 106.663 3.31614 106.99 2.98975C107.316 2.66336 107.708 2.50016 108.167 2.50016H112.333V0.833496H114V19.1668H112.333ZM108.167 15.0002H112.333V10.0002L108.167 15.0002ZM115.667 17.5002V10.0002L119.833 15.0002V4.16683H115.667V2.50016H119.833C120.292 2.50016 120.684 2.66336 121.01 2.98975C121.337 3.31614 121.5 3.7085 121.5 4.16683V15.8335C121.5 16.2918 121.337 16.6842 121.01 17.0106C120.684 17.337 120.292 17.5002 119.833 17.5002H115.667Z" fill="#282828"/>
</g>
</svg>
