<svg width="15" height="14" viewBox="0 0 15 14" fill="none" xmlns="http://www.w3.org/2000/svg">
<path d="M8.4375 6.09434H5.625C3.68555 6.09434 2.05078 7.40391 1.55859 9.18516C1.46191 8.82188 1.40625 8.41758 1.40625 7.96934C1.40625 5.89805 3.08496 4.21934 5.15625 4.21934H8.4375H9.14062C9.53027 4.21934 9.84375 3.90586 9.84375 3.51622V2.81309V1.98985L13.3623 5.15684L9.84375 8.32383V7.50059V6.79747C9.84375 6.40782 9.53027 6.09434 9.14062 6.09434H8.4375ZM8.4375 7.50059V8.90684V9.37559C8.4375 9.74473 8.6543 10.0816 8.99414 10.2311C9.33398 10.3805 9.72656 10.3189 10.002 10.0729L14.6895 5.85411C14.8857 5.6754 15 5.42344 15 5.15684C15 4.89024 14.8887 4.63829 14.6895 4.45957L10.002 0.240825C9.72656 -0.00819881 9.33105 -0.0697223 8.99414 0.0826214C8.65723 0.234965 8.4375 0.56895 8.4375 0.93809V1.40684V2.81309H7.03125H5.15625C2.30859 2.81309 0 5.12168 0 7.96934C0 10.2545 1.13086 11.6666 2.0127 12.4254C2.13281 12.5279 2.25 12.6188 2.35547 12.6979C2.44922 12.7682 2.53711 12.8268 2.61621 12.8795C2.74805 12.9674 2.85938 13.0289 2.93262 13.0699C3.00586 13.1109 3.08789 13.1256 3.16992 13.1256C3.48926 13.1256 3.74707 12.8648 3.74707 12.5484C3.74707 12.3492 3.6416 12.1617 3.50391 12.0182C3.48926 12.0035 3.47754 11.9918 3.46289 11.9772C3.39258 11.9098 3.31348 11.8277 3.2373 11.7252C3.1875 11.6578 3.1377 11.5787 3.09082 11.4938C2.93555 11.2096 2.8125 10.8229 2.8125 10.316C2.8125 8.76329 4.07227 7.50352 5.625 7.50352H7.03125H8.4375V7.50059Z" fill="#921653"/>
</svg>
